<svg width="999.9999999999999" height="999.9999999999999" xmlns="http://www.w3.org/2000/svg">
 <metadata>Svg Vector Icons : http://www.onlinewebfonts.com/icon</metadata>

 <g>
  <title>background</title>
  <rect x="-1" y="-1" width="1925.09001" height="1925.09001" id="canvas_background" fill="none"/>
 </g>
 <g>
  <title>Layer 1</title>
  <g stroke="null" id="svg_1">
   <g stroke="null" fill="#fff" transform="translate(0,511) scale(0.10000000149011612,-0.10000000149011612) " id="svg_2">
    <path stroke="null" d="m8226.9273,4669.76859c-69.54497,-30.3999 -273.80728,-204.26231 -451.83406,-386.66168l-325.86189,-330.4427l825.58619,-825.58619l825.58619,-825.58619l360.63437,360.63437c321.4893,330.23448 356.26179,382.49731 356.26179,530.1242c0,156.37206 -39.14507,208.6349 -656.09637,829.95878c-360.63437,365.00696 -690.86885,669.21413 -734.38651,682.12368c-39.14507,8.74518 -130.34476,-4.16437 -199.88972,-34.56426z" id="svg_4"/>
    <path stroke="null" d="m4046.73349,598.26482l-3145.97272,-3089.54551l816.84102,-816.84102l812.46843,-812.67665l3124.52621,3063.51821c1716.34477,1681.57229 3128.48237,3076.42775 3137.22754,3093.9181c13.11776,21.65472 -1581.62742,1672.82711 -1599.11777,1651.17239c-4.37259,-0.20822 -1416.51019,-1390.6911 -3145.97272,-3089.54551z" id="svg_5"/>
    <path stroke="null" d="m631.53431,-2786.74269c-52.05462,-147.83511 -499.7243,-1924.97967 -490.97913,-1938.09743c17.49035,-13.11776 2076.97914,369.37955 2098.84208,391.03427c8.74518,4.37259 -347.51661,373.75214 -786.44112,812.67665c-530.33242,530.1242 -808.51228,777.90417 -821.42183,734.38651z" id="svg_6"/>
   </g>
  </g>
 </g>
</svg>