<?xml version="1.0" encoding="utf-8"?>
<!-- Svg Vector Icons : http://www.onlinewebfonts.com/icon -->
<!DOCTYPE svg PUBLIC "-//W3C//DTD SVG 1.1//EN" "http://www.w3.org/Graphics/SVG/1.1/DTD/svg11.dtd">
<svg version="1.1"
    xmlns="http://www.w3.org/2000/svg"
    xmlns:xlink="http://www.w3.org/1999/xlink" x="0px" y="0px" viewBox="0 0 1000 1000" enable-background="new 0 0 1000 1000" xml:space="preserve">
    <metadata> Svg Vector Icons : http://www.onlinewebfonts.com/icon </metadata>
    <g>
        <path fill="#272631" d="M577.4,319.5c-14.3,0-25.8,11.6-25.8,25.8v283.7c0,14.3,11.5,25.8,25.8,25.8s25.8-11.5,25.8-25.8V345.3C603.2,331,591.6,319.5,577.4,319.5z"/>
        <path fill="#272631" d="M396.8,319.5c-14.3,0-25.8,11.6-25.8,25.8v283.7c0,14.3,11.5,25.8,25.8,25.8s25.8-11.5,25.8-25.8V345.3C422.6,331,411.1,319.5,396.8,319.5z"/>
        <path fill="#272631" d="M500,10C229.4,10,10,229.4,10,500c0,270.6,219.4,490,490,490c270.6,0,490-219.4,490-490C990,229.4,770.6,10,500,10z M500,938.4C257.9,938.4,61.6,742.1,61.6,500C61.6,257.9,257.9,61.6,500,61.6c242.1,0,438.4,196.3,438.4,438.4C938.4,742.1,742.1,938.4,500,938.4z"/>
    </g>
</svg>