<?xml version="1.0" encoding="UTF-8"?>
<svg width="32" height="32" enable-background="new 0 0 1000 1000" version="1.1" viewBox="0 0 32 32" xml:space="preserve" xmlns="http://www.w3.org/2000/svg" xmlns:cc="http://creativecommons.org/ns#" xmlns:dc="http://purl.org/dc/elements/1.1/" xmlns:rdf="http://www.w3.org/1999/02/22-rdf-syntax-ns#">
<metadata> Svg Vector Icons : http://www.onlinewebfonts.com/icon <rdf:RDF><cc:Work rdf:about=""><dc:format>image/svg+xml</dc:format><dc:type rdf:resource="http://purl.org/dc/dcmitype/StillImage"/><dc:title/></cc:Work></rdf:RDF></metadata>

<g transform="matrix(.032318 0 0 .032318 -.35165 -.35125)"><path d="m393.9 770.4 326.8-270.4-326.8-270.3zm-383.9-270.2c-1.8474-330.25-0.92369-165.13 0 0zm61.9-0.1c-43.114-330.19-21.557-165.09 0 0z"/></g><path d="m31.781 15.986c0-8.7006-7.0783-15.779-15.779-15.779-8.7006 0-15.779 7.0783-15.779 15.779 0 8.7006 7.0783 15.779 15.779 15.779 8.7006 0 15.779-7.0783 15.779-15.779zm-1.578 0c0 7.8304-6.3705 14.201-14.201 14.201-7.8305 0-14.201-6.3706-14.201-14.201 0-7.8305 6.3705-14.201 14.201-14.201 7.8304 0 14.201 6.3705 14.201 14.201z" fill="#272631" stroke-width=".12327"/><path d="m12.378 15.81c0-6.9414 0.01383-8.6752 0.06883-8.6315 1.0319 0.81902 10.375 8.5932 10.373 8.6317-0.0014 0.04061-7.7377 6.4788-10.181 8.4729l-0.26115 0.21313z" fill="#272631" stroke-width=".055065"/></svg>
