<svg id="Smaller_icon" data-name="Smaller icon" xmlns="http://www.w3.org/2000/svg" width="21" height="21" viewBox="0 0 21 21">
  <defs>
    <style>
      .cls-1 {
        fill: none;
        stroke: #ea5a5a;
        stroke-width: 1px;
      }
    </style>
  </defs>
  <rect class="cls-1" x="0.5" y="0.5" width="20" height="20"/>
  <rect class="cls-1" x="3.5" y="3.5" width="2" height="2"/>
  <rect class="cls-1" x="6.5" y="3.5" width="2" height="2"/>
  <rect class="cls-1" x="9.5" y="3.5" width="2" height="2"/>
  <rect class="cls-1" x="12.5" y="3.5" width="2" height="2"/>
  <rect class="cls-1" x="15.5" y="3.5" width="2" height="2"/>
  <rect class="cls-1" x="3.5" y="6.5" width="2" height="2"/>
  <rect class="cls-1" x="6.5" y="6.5" width="2" height="2"/>
  <rect class="cls-1" x="9.5" y="6.5" width="2" height="2"/>
  <rect class="cls-1" x="12.5" y="6.5" width="2" height="2"/>
  <rect class="cls-1" x="15.5" y="6.5" width="2" height="2"/>
  <rect class="cls-1" x="3.5" y="9.5" width="2" height="2"/>
  <rect class="cls-1" x="6.5" y="9.5" width="2" height="2"/>
  <rect class="cls-1" x="9.5" y="9.5" width="2" height="2"/>
  <rect class="cls-1" x="12.5" y="9.5" width="2" height="2"/>
  <rect class="cls-1" x="15.5" y="9.5" width="2" height="2"/>
  <rect class="cls-1" x="3.5" y="12.5" width="2" height="2"/>
  <rect class="cls-1" x="6.5" y="12.5" width="2" height="2"/>
  <rect class="cls-1" x="9.5" y="12.5" width="2" height="2"/>
  <rect class="cls-1" x="12.5" y="12.5" width="2" height="2"/>
  <rect class="cls-1" x="15.5" y="12.5" width="2" height="2"/>
  <rect class="cls-1" x="3.5" y="15.5" width="2" height="2"/>
  <rect class="cls-1" x="6.5" y="15.5" width="2" height="2"/>
  <rect class="cls-1" x="9.5" y="15.5" width="2" height="2"/>
  <rect class="cls-1" x="12.5" y="15.5" width="2" height="2"/>
  <rect class="cls-1" x="15.5" y="15.5" width="2" height="2"/>
</svg>
